<svg xmlns="http://www.w3.org/2000/svg" viewBox="0 0 948.47 148.97"><path d="M.11,1.68a2.6,2.6,0,0,0,1,2.77c.87.64,5.58,6,10.36,11.8S20.84,27.33,21.52,28s5.24,5.92,10,11.68,9.37,11.05,10,11.69,5.23,5.92,10,11.69,9.37,11.05,10,11.69,4.44,5,8.47,9.79l7.25,8.69.57,22,.56,22h54.62l.57-21.18c.56-22.5.68-23.07,6.67-29.33,1.33-1.44,6.68-7.48,11.92-13.36s11.16-12.6,13.06-14.73,8.46-9.71,14.61-16.73,11.91-13.59,12.82-14.5C201.33,18.18,215,1.9,215,.92c0-.46-17.15-.8-38.14-.8L138.67.23l-5.58,7.48c-3,4-9.79,13.17-15,20.19-9.79,13.36-12.14,15.48-14,12.37-.57-1-3.45-5.12-6.34-9.26s-5.92-8.39-6.68-9.6c-6-8.92-12.14-17.15-14-19C74.92.35,72.9.23,37.8.12,7,.12.68.35.11,1.68Zm365,.68c-.87,3.11-.8,129.87,0,132.87l.68,2.58h51.05v-18.3c0-10,.34-19.05.68-20.07.68-1.79,3.79-2.58,3.79-1,0,.57,2.13,3.11,4.79,5.92s6.14,6.79,7.93,8.92c5.69,6.91,16.73,19.39,19.5,22s2.77,2.58,36.55,2.58c39,0,36.66,1.22,22.62-11.69-4.55-4.25-8.58-8-8.92-8.34s-3-2.77-6.15-5.47c-9.37-8.23-22.84-21.29-22.84-22.09s17.83-24.4,22.5-29.86c8.12-9.72,16.17-20.5,15.6-21.07-.34-.34-13.93-.68-30.32-.68-22.09,0-30.1.34-31.31,1.33a67.7,67.7,0,0,0-6.15,7c-2.35,3-5,6.22-5.69,7A4.77,4.77,0,0,0,438,56.25c0,.45-2,3-4.44,5.81s-6.33,7.7-8.57,10.81c-3.57,4.9-6.15,6.91-7.25,5.58-.12-.11-.57-17.72-.87-39.24L416.25.31,390.93.2c-24.4-.08-25.27,0-25.84,2.16Zm341.1,0c-1,3.57-.8,132.56.23,134.12.8,1,6.68,1.33,26,1.1l25-.34V.23L732.07.12c-24.63-.11-25.31,0-25.88,2.24ZM813,1.22c-.23.57-.57,9.15-.69,18.94L812,38l-14.5.23c-21.51.46-19.5-1.33-19.5,17v15.6h15.37c10.59,0,15.94.46,17.15,1.33,1.56,1.21,1.9,4.44,2.24,19.85.34,17.61.46,18.63,3.57,25.08a69.08,69.08,0,0,0,7.13,11.39c4.14,5.24,12.83,11.8,17,13.17a12.17,12.17,0,0,1,3.8,1.78c1.1.87,6.15,2.24,15.59,4.36s25.77,1.22,39.59-2.12c10-2.47,24.86-10,32.1-16.4,8.92-7.81,16.85-21.51,16.93-29.22V97.62l-28.08.22-28,.34-1.45,6a20.25,20.25,0,0,1-4.25,8.92c-2.58,2.46-3.9,2.88-9.71,2.88-6.57,0-7-.23-10.59-4.36l-3.79-4.37V89.68c0-20.83-2-18.71,18.71-19.16l13.81-.23V54.69l.11-15.59-16.39-.35-16.28-.34v-18c0-9.9-.46-18.63-.91-19.28C860.8-.45,813.55-.34,813,1.22ZM230.63,36.36c-20,3.46-29.41,6.8-38.26,13.7-6.45,5-11.57,16.63-7.93,18,1,.35,14.95.69,31.12.69,24.29,0,29.64-.34,31-1.67,3.45-3.46,10.59-5.35,17.83-4.67,18.18,1.56,25.85,5.92,23.65,13.17-.57,1.78-1.33,2.12-3.11,1.67-10.82-3.23-49.83-4.44-64.33-2-20.72,3.34-36.24,13.47-40.46,26.64-5.12,15.6,1.22,28.31,18.94,37.91,3.11,1.67,14.5,5.24,22.62,7.14,13.81,3.11,37.12,1.21,48.73-4.14a22.28,22.28,0,0,1,4.14-1.56A40.88,40.88,0,0,0,280.5,138c4.89-3,5.46-3.11,8.34-1.67,2.47,1.33,7.94,1.55,27.33,1.33l24.29-.35.34-33.77C341,70,341,69.72,338.33,63.92c-4.44-9.8-14-17.27-29.11-22.85-12-4.52-17.72-5.16-45.69-5.39C248.28,35.57,233.44,35.79,230.63,36.36Zm47.51,64.22c7.93,2.23,11.05,4.78,10.14,8.35-1.11,4-6.46,6.33-17.61,7.81-11.69,1.33-27.86-.11-33.32-3.22-4.56-2.58-5.58-6.68-2.24-9.38a14.24,14.24,0,0,1,5.46-2.65,29.67,29.67,0,0,0,5.12-1.56C249.6,98.22,271.54,98.68,278.14,100.58Zm248.7-61.33c-.46.45-.8,16-.8,34.68,0,42.93.45,44.6,14,57.84,3.8,3.68,8.8,7.59,11.16,8.69s5.24,2.36,6.22,2.89c1.9,1.1,7,2.46,15.94,4.44a65.64,65.64,0,0,0,11.69,1,68.85,68.85,0,0,0,11.69-1c9.49-2.13,13.59-3.34,16.85-5a17.49,17.49,0,0,1,4.25-1.67c.57,0,3.68-2,6.79-4.37,7.25-5.58,9.72-6,10.59-2.35l.68,2.77h49v-98h-49l-.57,26.76c-.57,27.63-.8,29.11-5.81,35.1-2.58,3.12-9.14,7.37-14.27,9.26-13.47,5-28.88-1-37.23-14.49-2.77-4.67-2.88-4.9-3.11-30.67l-.34-26L551,38.79c-12.79-.11-23.72.12-24.17.46Z" fill="#da2525"/></svg>